# xmcd CD database file
#
# Track frame offsets:
#	150
#	15359
#	38384
#	58709
#	73784
#	93659
#	102359
#	121559
#	134046
#	152857
#	176257
#
# Disc length: 2516 seconds
#
# Revision: 9
# Processed by: cddbd v1.5.2PL0 Copyright (c) Steve Scherf et al.
# Submitted via: CDex 1.70beta2
#
DISCID=8809d20b
DTITLE=Chappie - New Chappie
DYEAR=1999
DGENRE=Pop
TTITLE0=Welcoming Morning (Album Edit)
TTITLE1=Everyday
TTITLE2=DOCU-MENTARY KISS
TTITLE3=Good Day Afternoon
TTITLE4=水中メガネ (Album Version)
TTITLE5=The International Chappie's Cheer-Leading Team
TTITLE6=Space Latin Age
TTITLE7=デリカシーのかけら
TTITLE8=Happyending Soulwriter's Council Band
TTITLE9=七夕の夜、君に逢いたい
TTITLE10=Chappie's Attack
EXTD=YEAR: 1999
EXTT0=
EXTT1=
EXTT2=
EXTT3=
EXTT4=
EXTT5=
EXTT6=
EXTT7=
EXTT8=
EXTT9=
EXTT10=
PLAYORDER=
